<svg version="1" xmlns="http://www.w3.org/2000/svg" width="682.667" height="682.667" viewBox="0 0 512.000000 512.000000"><path d="M136.4 4c-1.2.5-4.7 4.6-7.9 9.2-8.3 12.1-10.4 15.1-11.8 16.8-.7.8-3.5 5-6.4 9.2-2.8 4.2-5.4 7.4-5.7 7.1-.3-.4-.6-.1-.6.5s-5.8 9.3-13 19.4c-7.1 10.1-13.5 19.1-14.2 20.2-.7 1-3.4 4.7-6 8.3-2.7 3.5-4.8 6.6-4.8 7 0 .4-5.8 8.2-9 12-.6.7-.8 1.3-.4 1.3.3 0-1.3 1.9-3.6 4.2-2.3 2.3-4.7 5.3-5.4 6.7-1.8 3.5-1.9 35.3-.1 39.6 2.9 7.1 8.5 9.1 23.9 8.9l9.8-.1-.6 5.1c-.6 4.9-1.1 8.3-2.1 13.6-.3 1.4-.8 4.2-1.1 6.4-.3 2.1-.8 4.8-1 6-.3 1.1-.7 3.4-.9 5.1-.6 4.1-1.4 8.5-2 11.5-.2 1.3-.7 4-1 6-.3 2-.8 4.7-1 6-.3 1.4-.7 4.1-1 6-.2 1.9-.7 4.8-1.1 6.5-.4 1.6-.7 4-.7 5.2-.1 1.3-.3 2.3-.6 2.3-.4 0-.6 1-.7 2.2-.1 1.3-.4 3.9-.7 5.8-.4 1.9-.9 5.5-1.3 8-.3 2.5-1 5.3-1.5 6.2-.6 1.2-.6 1.8 0 1.8.7 0 .7.9 0 2.7-.6 1.6-1.2 4.1-1.4 5.8-.4 2.9-1.1 7.5-2.1 12.5-.6 3-.9 5.1-1.8 11-.4 2.5-.9 5.2-1.1 6-.5 1.6-1 4.9-2 12-.4 2.4-.9 4.8-1.1 5.1-.2.4-.6 2.7-.9 5-.3 2.4-1 6.6-1.5 9.4-.5 2.7-1.1 6.6-1.4 8.5-.3 1.9-1 5.9-1.6 8.9-.5 3-.8 5.6-.6 5.9.3.2.1 1.4-.4 2.7-.5 1.3-1.1 4-1.5 6.2-.3 2.1-.8 5-1 6.3-.3 1.4-1.2 6.5-2 11.5-.8 4.9-1.7 10.1-1.9 11.5-.3 1.4-1.9 11-3.6 21.5-1.7 10.4-3.4 19.7-3.7 20.5-.4.8-.5 1.9-.4 2.4.1.5-.3 3.2-.8 6-.6 2.8-1.3 6.9-1.6 9.1-.3 2.2-.9 5.3-1.2 7-.4 1.6-.7 3.8-.8 4.7-.1 1-.5 2.1-.9 2.5-.4.4-6 .8-12.4.9-6.4.1-11.9.2-12.2.3-.3 0-.5 6.3-.5 13.8v13.8l134.8.3c107.4.2 134.7 0 134.8-1 .1-1.6.1-21.3 0-24.8l-.1-2.6-12.1.1c-6.6 0-12.2-.2-12.4-.5-.2-.3-.6-2.4-.9-4.6-.4-2.2-.9-5.1-1.1-6.4-.3-1.4-.7-4.1-1-6-.3-1.9-.7-4.6-1-6-.7-3.4-1.8-10.2-1.8-11.8 0-.6-.3-1.2-.6-1.2s-.7-1.8-.8-4c-.1-2.2-.5-5.2-.8-6.7-.3-1.5-.8-3.9-1-5.3-.2-1.4-.6-3.9-.9-5.5-.3-1.7-.8-4.4-1.1-6-.4-1.7-.8-4.4-1-6-.2-1.7-.4-3-.5-3-.1 0-.3-1.1-.5-2.5-.1-1.4-.5-3.9-.9-5.5-.6-2.9-1.6-9-2.1-13-.1-1.1-.5-2.7-.9-3.6-.4-.9-.6-2-.5-2.5.1-.5 0-1.4-.1-1.9-.1-.6-.3-1.5-.4-2-1.3-7.6-2-12.3-2.2-13.8-.1-.9-.2-1.8-.4-2-.2-.2-.5-2.2-1.6-8.7-.4-2.5-.8-5-1-5.7-.3-1.7-1.5-9.4-2-12.8-.2-1.7-.6-4.1-1-5.5-.3-1.3-.7-4-1-5.9-.6-5-1.4-9.3-1.8-10-.2-.3-.7-2.6-1-5.1-.7-5.3-1.5-10.1-3.2-19.5-.1-1.1-1.2-7.4-2.3-14-1.2-6.6-2.3-12.9-2.5-14.1-.2-1.2-.7-4.5-1.1-7.5-.4-3-.9-5.7-1.1-6-.2-.3-.6-2.4-.9-4.5-.2-2.1-.7-4.9-.9-6-.5-2.5-1.6-8.9-2.1-12.4-.6-4.4-1.5-9.3-2.6-14.9-.6-3-1.2-6.4-1.4-7.5-.4-3.5-1.7-12-2.1-13.9-.2-.9-.6-2.5-.8-3.5-.2-1.1-.7-4.1-1.1-6.9l-.6-4.9h95.6c52.5-.1 95.6.2 95.6.5.1.3.2 19.7.3 43l.1 42.4-3.5 2.2c-7.2 4.6-10.5 10.6-10.4 19 .1 2.8.9 6.6 1.9 8.5 2.4 4.9 8 9.8 12.6 11.1l3.8 1.2-3.9 1.9c-7 3.5-9.4 12.3-5.4 20l1.5 3-4.3-.3c-2.4-.2-4.9.1-5.6.5-.7.4-1.2.4-1.2-.1 0-1-21.3-.8-22.9.1-.6.4-1.1.4-1.1-.1 0-1-21.3-.8-22.9.1-.6.4-1.1.4-1.1-.1 0-1-13.3-.9-14.9.1-.6.4-1.1.3-1.1-.1 0-.8-13.9-.7-14.8.1-.9 1-.6 12.9.4 13.3.5.2 3.2.5 6 .6l4.9.3.1 17.1c0 11.4-.3 17.3-1 17.6-.6.1-3.2.2-5.8.2-4.5-.1-4.8 0-4.9 2.4 0 1.4-.1 4.3-.2 6.4-.1 2.1.3 4.3.9 4.8.7.5 41.2.8 101 .7l99.8-.3.2-6.7c.1-5-.3-6.8-1.3-6.9-.7-.1-3-.2-5-.3-2.1 0-4.3-.5-4.8-1-1.6-1.4-1.4-34.1.3-34.2.6-.1 3.4-.2 6-.3l4.9-.1-.1-6.4c-.1-3.6-.5-6.8-.9-7.2-.9-.9-7-1-8.5 0-.7.4-1.2.4-1.2-.1 0-1-21.3-.8-22.9.1-.6.4-1.1.4-1.1-.1 0-.4-12.6-.7-28-.6l-28.1.2 2.1-3.4c4.6-7.4-.9-20.3-8.7-20.5-1-.1.4-1 3.1-2 9-3.5 13.7-9.9 14.1-19.5.5-8.4-4.5-16.9-11.3-19.6-1.3-.5-2-1.3-1.7-1.9.3-.5.2-1-.3-1s-.9-.7-.9-1.5.5-1.5 1.1-1.5c.7 0 .8-.3.1-.8-1.4-.9-1.3-9.5 0-10.5.6-.4.5-1-.3-1.6-1.7-1.1-1.7-2.1 0-3.2.7-.5.8-.9.2-.9-1.3 0-1.3-9.2.1-10.3.7-.4.7-.9 0-1.5-.6-.4-1-6-1-13.2 0-7.2.4-12.8 1-13.3.7-.4.7-1 0-1.5-1.4-.9-1.3-9.5 0-10.5.7-.5.7-.9 0-1.5-1.2-.8-1.5-10.2-.3-10.2.4 0 .5-.6.2-1.3-.4-1 6.5-1.3 36-1.3 38.5-.1 40.9-.3 44.9-4.9 3.3-3.7 3.8-6.7 3.8-24.1 0-17.9-.3-19.6-4.5-24-3.6-3.8-7.8-4.2-38.6-4.2-28.2 0-29.8-.1-35.5-2.2-3.3-1.2-6.4-2.6-6.9-3.1-.6-.5-1.8-.9-2.8-.9-1 0-1.8-.5-1.8-1.2 0-.6-.3-.9-.6-.5-.3.3-3.3-.7-6.7-2.2-3.4-1.5-6.5-2.8-7-2.9-.4-.1-2.2-.8-4-1.6-1.7-.8-6.1-2.7-9.7-4.1-3.6-1.5-7.8-3.3-9.5-4-1.6-.7-8.2-3.4-14.5-6-6.3-2.6-12.8-5.3-14.5-6-1.6-.7-9.3-3.9-17-7-7.7-3.2-14.9-6.2-16-6.8-1.1-.6-2.5-1.2-3.1-1.3-.7-.1-3.8-1.3-7-2.7-5.7-2.4-9.3-3.9-10.4-4.2-.3 0-2.1-.8-4-1.7-8.9-4-13-5.8-13.6-5.8-.3 0-2-.6-3.7-1.4-1.8-.8-6.1-2.7-9.7-4.1-3.6-1.4-7.8-3.2-9.5-4-1.6-.7-5.5-2.3-8.5-3.5-3-1.2-6.8-2.7-8.5-3.5-15-6.4-20.6-8.7-22.1-9-.5-.2-3-1.2-5.4-2.4-2.4-1.1-5-2.1-5.7-2.1-.7 0-1.3-.4-1.3-.8 0-.5-2.2-1.5-5-2.2-2.7-.7-5-1.7-5-2.2 0-.4-.6-.8-1.3-.8-.7 0-6.4-2.2-12.7-4.8-18.2-7.7-22.3-9-24.6-8.2zm17.8 20.9c2.6 1.2 5 2.1 5.3 2.1.3 0 2.4.9 4.8 1.9 2.3 1.1 17 7.2 32.7 13.6 15.7 6.5 29.9 12.3 31.5 13 1.7.8 5.9 2.6 9.5 4.1 3.6 1.4 7.6 3.1 9 3.7 1.4.6 2.8 1 3.3.9.4-.1.7.3.7.8s.3.9.8.9c.4-.1 1 0 1.5.1.4.1 1 .3 1.5.5.4.1 2.9 1.1 5.5 2.3C263 70 265.5 71 266 71s2.1.7 3.7 1.5c1.5.8 4.4 2.1 6.3 2.9 1.9.7 5.1 2.1 7 2.9 1.9.8 7.1 3 11.5 4.7 4.4 1.8 9.8 4 12 4.9 2.2 1 8.3 3.6 13.5 5.7 5.2 2.1 9.8 4.2 10.1 4.7.3.5 1 .8 1.5.7.5 0 1.8.2 2.9.6 2.3.7 1.7.5 7.8 3.2 2.7 1.2 5.1 2.2 5.3 2.2.2 0 2.4.9 4.8 2.1 2.5 1.1 5.1 2.2 5.9 2.3.8.1 2.3.8 3.3 1.6.9.8 1.8 1.4 1.8 1.2.1-.2 1.2.1 2.6.6 1.4.6 3.7 1.5 5.3 2.1 1.5.6 2.7 1.4 2.7 1.8 0 1-183.7.9-184.7-.1-.4-.3-.8-4.1-.8-8.4-.2-8.7-.9-11.7-3.5-14.5-4-4.2-6.8-4.8-23.2-4.9-9.1 0-15.6-.4-15.2-.9.3-.5.1-.9-.3-.9-1.3 0-1-9.3.2-10.3.7-.4.7-1 0-1.5-1.3-1-1.4-10.2 0-10.2.6 0 .7-.3 0-.8-1.4-1-1.4-6.5-.1-7.5.8-.5.8-.9.1-1.5-1.4-.9-1.3-9.5 0-10.5.7-.4.7-1 0-1.5-1.4-.9-1.3-9.5 0-10.4.7-.5.7-.8 0-.8-1.1 0-1.5-7-.4-7 .4 0 .5-.9.2-2.1-.5-1.8-.3-2 1.3-1.1 1 .6 4 2 6.6 3.1zm-22.7 37.3v26.3l-15.9.2c-13.1.2-16.6.6-19.4 2.1-5.4 2.8-7.2 7.1-7.2 17.4 0 6.3-.4 8.8-1.2 8.9-7.1.4-14.8.3-14.8-.3s19.4-28.5 21.7-31.3c.5-.6 3.3-4.6 6.3-9 3-4.3 6.3-8.9 7.4-10.1 1-1.3 2.4-3.2 3-4.3.6-1 4.8-7.1 9.3-13.4 4.5-6.3 8.5-12.2 8.9-13.1 1.5-3.9 1.9 1.5 1.9 26.6zm84.3 69.7c.9.1 1.2 3.6 1.2 14 0 14.2-.6 16.2-4 14.1-.8-.5-2.2-.4-3.1.1-1 .5-2 .5-2.3.1-.3-.5-1.9-.7-3.6-.4-2 .3-3 0-3.1-.9-.5-6.1-.4-26.5.2-26.9.6-.4 10.8-.5 14.7-.1zm43.2.3c.3.4.5 6.7.5 14v13.3h-4.3c-2.3 0-4.2.3-4.2.6 0 .4-1.6.3-3.5-.1s-3.7-.4-4 0c-.2.4-2.3.4-4.5 0s-4-.4-4 0c0 .5-.9.6-1.9.3-1.8-.5-2-1.5-2-14.1 0-7.5.4-13.9.9-14.2 1.3-.8 26.4-.6 27 .2zm43.1 1.8c.1 2.8.1 21.6 0 24.1-.1 1.8-3.8 3.3-4.6 1.8-.3-.4-1.6-.4-2.9.1-1.2.4-2.9.4-3.6 0-.8-.5-2.2-.4-3.1.1-1.1.6-2 .5-2.4-.1-.4-.6-1.5-.6-3 0-1.4.5-2.5.6-2.5.1 0-.4-1.1-.6-2.4-.4-1.3.3-2.7-.1-3.2-.8-1.1-1.9-1.1-21.3.1-22.2.7-.4.7-1 0-1.5-.9-.6-1.2-2.3-.6-3.5 0-.1 6.4-.2 14.1-.2h14l.1 2.5zm42.2-2.1c.4 0 .7 6.4.7 14.2 0 10.8-.3 14-1.2 13.6-.7-.2-2.3 0-3.5.4-1.3.5-2.3.5-2.3-.1 0-.5-1.2-.5-3 0-1.7.5-3 .5-3 0s-1.2-.5-2.7-.2c-1.6.4-5 .5-7.8.2l-5-.5-.1-13c0-7.2.3-13.5.7-14 .6-.8 22.8-1.3 27.2-.6zm42.7 0c.4.1.5 18.4.1 26.2-.1 1.9-5.7 3-9 1.7-1.1-.4-2.3-.3-2.6.2-.4.6-1.3.7-2.4.1-.9-.5-2.3-.6-3.1-.1-.7.4-1.9.6-2.6.3-.7-.2-2.8-.5-4.6-.6l-3.3-.2-.2-13.5c-.1-7.4 0-13.7.2-14 .3-.4 25.6-.5 27.5-.1zm43.1 1.6c.1 2.8.1 20.4 0 23.6-.1 2.2-.7 2.8-3.1 3.1-1.6.3-3 .2-3-.1 0-.8-5.8-.6-6.6.1-.3.4-1.8.3-3.2-.2-1.5-.4-3.7-.3-5 .1-1.2.5-2.2.4-2.2 0 0-.5-.9-.7-2-.4-2.3.6-4.3-3.2-2.9-5.8.5-1 .3-2.1-.3-2.7-.7-.7-.8-1.2-.2-1.2.6 0 .8-2.1.4-5.6-.3-3-.3-5.7.2-6 .4-.3.3-1.4-.2-2.5-.7-1.2-.7-1.9-.1-1.9s.8-.6.6-1.3c-.4-.9 2.7-1.2 13.5-1.2 13.3 0 14 .1 14.1 2zm38.5-1.1c3.3 1 4.5 5.2 4.3 14-.1 4.4-.4 8.8-.7 9.8-.5 2.1-6.3 4.2-10.3 3.6-1.6-.3-2.9-.1-2.9.3s-1.6.3-3.5-.1-3.7-.4-4 0c-.3.4-1.9.5-3.7.1l-3.3-.7-.1-12.9c0-7.2.1-13.5.3-14 .4-1.2 20.4-1.3 23.9-.1zm-307.3 43.2c-.3.8-.8 1.4-1.2 1.4-.3 0-1.7 1-3.1 2.3-1.4 1.2-4.5 3.8-7 5.7-5.9 4.6-8 6.3-9.4 7.6-1.4 1.3-3.3.7-6.1-1.8-1.1-1.1-4.5-3.8-7.5-6.1s-7-5.6-8.8-7.3l-3.4-3 23.5-.1c19.4 0 23.4.2 23 1.3zm9.2 20.8c.3 1.4.7 3.8 1 5.3.3 1.6.8 4.4 1.1 6.3.3 1.9.7 4.6 1 6 .2 1.4.7 4 1 5.9l.6 3.3-10.5-8.3-10.5-8.4 2.7-2.5c1.4-1.4 4.4-3.9 6.5-5.5 2.2-1.7 4.4-3.5 5-4.1 1.4-1.5 1.6-1.3 2.1 2zm-60.1-.9c.8.8 1.7 1.5 2 1.5.3 0 1.8 1.2 3.4 2.7 1.5 1.6 3.9 3.5 5.2 4.4 2.8 1.8 2.7 1.9-5 7.9-2.5 1.9-5 3.9-5.6 4.5-.6.5-2.6 2.3-4.4 3.8l-3.2 2.9.5-5.4c.3-2.9.8-6.3 1-7.4.3-1.2.8-3.9 1.1-6 1.8-11.2 2.1-11.8 5-8.9zm32.4 26.6c2.3 1.7 4.2 3.5 4.2 4s.6.9 1.3.9c.6 0 2.6 1.2 4.2 2.8 1.7 1.5 5.5 4.7 8.5 7.2s6.4 5.2 7.5 6.2c1.1.9 3.9 3.2 6.2 5.1l4.2 3.5-8.2 5.3c-4.5 2.9-8.3 5.7-8.5 6.1-.2.4-1 .8-1.8.8s-1.4.4-1.4 1c0 .5-.5 1-1 1-1.2 0-7.3 4.1-7.8 5.2-.2.5-.8.8-1.3.8-.4 0-2.8 1.4-5.2 3.1-3.2 2.2-5.1 2.9-6.6 2.4-1.1-.3-2.1-1.1-2.1-1.6s-.5-.9-1-.9c-.9 0-6.5-3.5-8-5-.3-.3-5.7-3.9-12-8s-11.6-7.8-11.8-8.3c-.2-.4-1-.7-1.8-.7-3.4 0-2.5-.9 17.1-17 5.5-4.4 12.3-10.1 15-12.5 2.8-2.5 5.2-4.4 5.6-4.5.3 0 2.4 1.4 4.7 3.1zM102 279c3.2 2.2 6.4 4 6.9 4 .6 0 1.1.4 1.1 1 0 .5.6 1 1.4 1 .8 0 1.6.4 1.8.9.2.5 1.8 1.8 3.7 2.9l3.3 2-5.8 3.9c-3.3 2.1-6.1 4-6.4 4.3-.3.3-5.1 3.6-10.8 7.3l-10.3 6.8.5-3.3c.3-1.8 1-6 1.6-9.3.6-3.3 1.2-7.4 1.5-9 .3-1.7.8-4.6 1.1-6.5 1-5.4 1.5-8.4 1.6-9.8.2-1.7 1.7-1.1 8.8 3.8zm82.6-1.3c.2 1 .6 3.9.9 6.5.4 2.6 1 6.1 1.5 7.8.5 1.6.6 3 .2 3-.4 0 0 .5.8 1 1.1.7 1.1 1 .2 1-.7 0-1.1.4-.8.9.6 1 1.9 7.6 2 10.3 0 1 .5 1.8 1 1.8.6 0 .6.4-.1 1.1-.8.8-1.9.6-3.9-.7-1.6-1-3.1-2.1-3.4-2.4-.3-.3-6-4.1-12.7-8.5-6.8-4.4-12.3-8.3-12.3-8.7 0-.3 1.7-1.7 3.8-2.9 2-1.3 4.3-2.9 5-3.5.6-.7 2.1-1.6 3.2-1.9 1.1-.3 2-1.1 2-1.7 0-.6.3-.9.6-.5.4.3 1.2.1 2-.6 3.2-2.9 4.4-3.7 4.4-3.2 0 .4.7-.1 1.6-1 1.8-1.8 3.6-.8 4 2.2zm-32 34.3c7.5 4.9 13.9 9 14.4 9 .4 0 1.5.9 2.5 2s2.4 2 3.1 2c.7 0 1.4.4 1.6.8.2.4 4 3.2 8.6 6.2s7.7 5.7 7 5.9c-.7.2-10.2 5.3-21.1 11.3-10.9 5.9-20.2 10.8-20.7 10.8-.4 0-1 .3-1.2.7-.5 1.3-6.8 4.3-8.9 4.3-1 0-1.9-.5-1.9-1 0-.6-.3-.9-.7-.8-.8.2-3.1-.9-10.3-5.1-1.9-1.1-6-3.3-9-4.8s-5.7-3-6-3.3c-.3-.3-2.7-1.7-5.5-3.2-2.7-1.4-7.8-4.1-11.3-5.9l-6.2-3.4 3.2-2.7c1.8-1.5 3.8-2.8 4.5-2.8.6 0 1.3-.3 1.5-.8.2-.4 3.5-2.7 7.3-5.2 3.9-2.4 7.2-4.7 7.5-5 .9-1 15-10 15.6-10 .3 0 1.2-.6 1.9-1.3 2.5-2.1 8.2-5.9 10.3-6.6.1-.1 6.3 3.9 13.8 8.9zm-66.8 46.6c8.5 4.8 24.4 13.5 29.5 16.1 1.5.8 2.5 1.8 2.3 2.2-.3.4-2.7 1.8-5.5 3.1s-5.1 2.7-5.1 3.2c0 .4-.5.8-1.1.8-.6 0-8.4 4-17.4 8.9l-16.4 8.9.3-3.6c.3-2.1.5-3.7.6-3.7.1 0 .3-.9.5-2 .8-5.1 3.2-19.4 3.9-23.2.3-1.1.8-4.3 1.2-7 .7-4.9 1.1-6.3 2-6.3.3 0 2.6 1.2 5.2 2.6zm112.3-1.8c.1 1.1.8 5.3 1.9 11.7.6 3.3 1.2 7.1 1.4 8.5.2 1.4.6 3.6.9 5 .8 3.2 1.7 8.5 2.1 13.2.3 2 .7 4.2 1.1 4.8 1.3 2.1-5.2.3-7.5-2-.3-.3-3.4-2.1-7-3.9-3.6-1.9-8.1-4.3-10-5.4-1.9-1.1-7.3-4-12-6.5-9.4-4.9-11.2-6.2-8.8-6.2.9 0 1.8-.3 2-.8.2-.4 2.8-2 5.8-3.6s6.3-3.6 7.3-4.4c.9-.8 1.7-1.2 1.7-.8 0 .3 1.9-.6 4.2-2.1 2.4-1.4 4.9-2.6 5.5-2.6.7 0 1.3-.4 1.3-.8s1.4-1.2 3-1.8c1.7-.5 3-1.4 3-1.8 0-1 4-1.5 4.1-.5zm-51.7 34.9c3.9 2.1 7.3 4.1 7.4 4.5.2.5 1.2.8 2.3.8 1 0 1.9.4 1.9 1 0 .5.6 1 1.4 1 .7 0 1.9.7 2.6 1.5.7.9 1.5 1.3 1.8 1.1.3-.3 1.7.3 3.2 1.4 1.6 1.1 3 2 3.3 2 .3 0 5.7 2.9 12.1 6.5 6.4 3.6 12 6.5 12.5 6.5s1.6.6 2.3 1.2c.7.7 3.9 2.6 7.1 4.3 3.4 1.8 5.7 3.7 5.8 4.7.1 1 .2 2.1.3 2.5.1.5.6 3 1.1 5.8.4 2.7.9 5.4 1.1 6 .1.5.5 2.8.9 5 .3 2.2 1.3 7.6 2 12 .8 4.4 1.7 9.3 2 11 .3 1.6.8 5.3 1.1 8l.6 5H58.5l.2-3c.5-6.5.8-8.5 1.3-8.5.3 0 .5-1.2.4-2.8 0-1.5.3-4.1.7-5.7.4-1.7 1-4.8 1.4-7 .3-2.3.8-5.2 1.1-6.5.3-1.4.7-4.1 1-6 .2-1.9.7-4.6 1-6 .3-1.4.8-4.3 1.1-6.5.7-5.1.9-5.4 8-9 3.2-1.7 6-3.2 6.3-3.5.3-.3 2.8-1.6 5.5-3 2.8-1.4 5.2-2.7 5.5-3 .3-.3 2.5-1.6 5-2.9 7.8-4.1 21.4-11.3 25-13.4 10.3-5.8 15.6-8.6 16.4-8.7.5 0 4.1 1.7 8 3.7z"/></svg>